<svg xmlns="http://www.w3.org/2000/svg" viewBox="0 0 64 64" id="Account"><path fill="#999999" d="M3,49H61a0,0,0,0,1,0,0v5a1,1,0,0,1-1,1H4a1,1,0,0,1-1-1V49a0,0,0,0,1,0,0Z" class="color999999 svgShape"></path><path fill="#f2f2f2" d="M25,49H39a0,0,0,0,1,0,0v2a1,1,0,0,1-1,1H26a1,1,0,0,1-1-1V49A0,0,0,0,1,25,49Z" class="colorf2f2f2 svgShape"></path><path fill="#f4ce92" d="M6,14H58a1,1,0,0,1,1,1V49a0,0,0,0,1,0,0H5a0,0,0,0,1,0,0V15a1,1,0,0,1,1-1Z" class="colorafafaf svgShape"></path><line x1="56" x2="58" y1="52" y2="52" fill="none" stroke="#2755c1" stroke-miterlimit="10" stroke-width="2" class="colorStrokec1272d svgStroke"></line><line x1="52" x2="54" y1="52" y2="52" fill="none" stroke="#f1a224" stroke-miterlimit="10" stroke-width="2" class="colorStrokef15a24 svgStroke"></line><line x1="48" x2="50" y1="52" y2="52" fill="none" stroke="#002c92" stroke-miterlimit="10" stroke-width="2" class="colorStroke009245 svgStroke"></line><line x1="7" x2="11" y1="52" y2="52" fill="none" stroke="#f2f2f2" stroke-linecap="round" stroke-miterlimit="10" stroke-width="2" class="colorStrokef2f2f2 svgStroke"></line><rect width="48" height="27" x="8" y="18" fill="#f4a82f" class="color2fcaf4 svgShape"></rect><path fill="#f2f2f2" d="M41,30a9,9,0,1,1-9-9A8.93,8.93,0,0,1,41,30Z" class="colorf2f2f2 svgShape"></path><line x1="31" x2="33" y1="42" y2="42" fill="none" stroke="#f2f2f2" stroke-miterlimit="10" stroke-width="2" class="colorStrokef2f2f2 svgStroke"></line><circle cx="32" cy="28" r="4" fill="#f7a31e" class="colorf7931e svgShape"></circle><path fill="#f7a31e" d="M38.45,36.27a9,9,0,0,1-12.9,0,7,7,0,0,1,12.9,0Z" class="colorf7931e svgShape"></path><line x1="35" x2="37" y1="42" y2="42" fill="none" stroke="#f2f2f2" stroke-miterlimit="10" stroke-width="2" class="colorStrokef2f2f2 svgStroke"></line><line x1="27" x2="29" y1="42" y2="42" fill="none" stroke="#f2f2f2" stroke-miterlimit="10" stroke-width="2" class="colorStrokef2f2f2 svgStroke"></line><g fill="#1a1d24" class="color000000 svgShape"><path d="M60,15a2,2,0,0,0-2-2H6a2,2,0,0,0-2,2V48H2v6a2,2,0,0,0,2,2H60a2,2,0,0,0,2-2V48H60ZM6,15H58V48H6ZM38,51H26V50H38Zm22-1v4H4V50H24v1a2,2,0,0,0,2,2H38a2,2,0,0,0,2-2V50Z" fill="#1a1d24" class="color000000 svgShape"></path><rect width="2" height="2" x="56" y="51" fill="#1a1d24" class="color000000 svgShape"></rect><rect width="2" height="2" x="52" y="51" fill="#1a1d24" class="color000000 svgShape"></rect><rect width="2" height="2" x="48" y="51" fill="#1a1d24" class="color000000 svgShape"></rect><path d="M11 51H7a1 1 0 0 0 0 2h4a1 1 0 0 0 0-2zM57 17H7V46H57zM55 44H9V19H55z" fill="#1a1d24" class="color000000 svgShape"></path><rect width="2" height="2" x="31" y="41" fill="#1a1d24" class="color000000 svgShape"></rect><path d="M24.37,36.49l.46.47a10,10,0,0,0,14.33,0h0l.46-.47v0A9.9,9.9,0,0,0,42,30a10,10,0,0,0-20,0,9.9,9.9,0,0,0,2.38,6.46ZM29,28a3,3,0,1,1,3,3A3,3,0,0,1,29,28Zm8.18,8.09-.21.17-.39.3-.25.16a4.11,4.11,0,0,1-.39.24l-.27.15-.4.19-.29.13-.42.15-.3.09c-.14,0-.29.08-.44.12l-.29.06-.51.08-.25,0a7.43,7.43,0,0,1-1.54,0l-.25,0-.51-.08-.28-.06c-.16,0-.31-.07-.46-.12l-.28-.09L29,37.42l-.28-.11-.42-.21L28.07,37l-.42-.26-.22-.15a4.63,4.63,0,0,1-.42-.32l-.19-.15-.05,0a6,6,0,0,1,10.46,0ZM32,22a8,8,0,0,1,8,8,7.89,7.89,0,0,1-1.4,4.51,7.87,7.87,0,0,0-3.29-2.79,5,5,0,1,0-6.62,0,7.87,7.87,0,0,0-3.29,2.79A7.89,7.89,0,0,1,24,30,8,8,0,0,1,32,22Z" fill="#1a1d24" class="color000000 svgShape"></path><rect width="2" height="2" x="35" y="41" fill="#1a1d24" class="color000000 svgShape"></rect><rect width="2" height="2" x="27" y="41" fill="#1a1d24" class="color000000 svgShape"></rect></g></svg>