<svg xmlns="http://www.w3.org/2000/svg" viewBox="0 0 48 48" id="Bank"><path fill="#4b65a3" d="M8 17h32.3v20H8z" class="color4b7da3 svgShape"></path><path fill="#f4ce92" d="M8 17h4v20H8zM22 17h4v20h-4zM36 17h4v20h-4z" class="colord8e5ea svgShape"></path><path fill="#f3eee7" d="M45 13H3V9l21-6 21 6zM3 41h42v4H3zM6 37h36v4H6zM6 13h36v4H6z" class="colore7f0f3 svgShape"></path><path d="M42 18c.6 0 1-.4 1-1v-3h2c.6 0 1-.4 1-1V9c0-.4-.3-.8-.7-1l-21-6h-.6l-21 6c-.4.2-.7.6-.7 1v4c0 .6.4 1 1 1h2v3c0 .6.4 1 1 1h1v18H6c-.6 0-1 .4-1 1v3H3c-.6 0-1 .4-1 1v4c0 .6.4 1 1 1h42c.6 0 1-.4 1-1v-4c0-.6-.4-1-1-1h-2v-3c0-.6-.4-1-1-1h-1V18h1zM4 9.8 24 4l20 5.7V12H4V9.8zM41 14v2H7v-2h34zM27 36V18h8v18h-8zm-14 0V18h8v18h-8zm10-18h2v18h-2V18zM9 18h2v18H9V18zm35 26H4v-2h40v2zM7 40v-2h34v2H7zm32-4h-2V18h2v18z" fill="#1a1d24" class="color000000 svgShape"></path><circle cx="24" cy="8" r="2" fill="#1a1d24" class="color000000 svgShape"></circle><circle cx="17" cy="9" r="1" fill="#1a1d24" class="color000000 svgShape"></circle><circle cx="31" cy="9" r="1" fill="#1a1d24" class="color000000 svgShape"></circle></svg>