<svg xmlns="http://www.w3.org/2000/svg" fill-rule="evenodd" stroke-linecap="square" stroke-miterlimit="1.5" clip-rule="evenodd" viewBox="0 0 16 16" id="Organization"><path fill="#f4ce92" fill-rule="nonzero" d="M7.5 2.8515625v.5 3.1503906.5h1v-.5-3.1503906-.5zM2.6855469 6.3496094L2.375 7.3007812 2.8515625 7.4550781 5.8476562 8.4277344 6.3222656 8.5839844 6.6328125 7.6328125 6.15625 7.4765625 3.1601562 6.5039062zM6.6542969 9.6035156l-.2929688.4042964-1.8535156 2.548829-.2929687.404297.8085937.58789.2949219-.404297 1.8515625-2.548828.2929687-.40625zM9.3457031 9.6035156l-.8085937.5859374.2929687.40625 1.8515629 2.548828.294921.404297.808594-.58789-.292968-.404297-1.8535161-2.548829zM13.314453 6.3496094L12.839844 6.5039062 9.84375 7.4765625 9.3671875 7.6328125 9.6777344 8.5839844 10.152344 8.4277344 13.148438 7.4550781 13.625 7.3007812z" clip-rule="nonzero" color="#000" font-family="sans-serif" font-weight="400" overflow="visible" style="line-height:normal;font-variant-ligatures:normal;font-variant-position:normal;font-variant-caps:normal;font-variant-numeric:normal;font-variant-alternates:normal;font-feature-settings:normal;text-indent:0;text-align:start;text-decoration-line:none;text-decoration-style:solid;text-decoration-color:#000;text-transform:none;text-orientation:mixed;shape-padding:0;isolation:auto;mix-blend-mode:normal" class="colore45527 svgShape"></path><path fill="#f4ce92" fill-rule="nonzero" d="m 8,6.0019531 c -1.4305704,0 -2.6015625,1.169039 -2.6015625,2.5996094 0,1.4305705 1.1709921,2.6015625 2.6015625,2.6015625 1.4305704,0 2.601562,-1.170992 2.601562,-2.6015625 C 10.601562,7.1709921 9.4305704,6.0019531 8,6.0019531 Z m 0,1 c 0.8901302,0 1.6015625,0.7094792 1.6015625,1.5996094 0,0.8901302 -0.7114323,1.6015625 -1.6015625,1.6015625 -0.8901302,0 -1.6015625,-0.7114323 -1.6015625,-1.6015625 C 6.3984375,7.7114323 7.1098698,7.0019531 8,7.0019531 Z" clip-rule="nonzero" color="#000" font-family="sans-serif" font-weight="400" overflow="visible" style="line-height:normal;font-variant-ligatures:normal;font-variant-position:normal;font-variant-caps:normal;font-variant-numeric:normal;font-variant-alternates:normal;font-feature-settings:normal;text-indent:0;text-align:start;text-decoration-line:none;text-decoration-style:solid;text-decoration-color:#000;text-transform:none;text-orientation:mixed;shape-padding:0;isolation:auto;mix-blend-mode:normal" class="colore45527 svgShape"></path><path fill="#1a1d24" fill-rule="nonzero" d="M8 .75c-.850119 0-1.5507812.7006622-1.5507812 1.5507812 0 .8501191.7006622 1.5488282 1.5507812 1.5488282.850119 0 1.5507812-.6987091 1.5507812-1.5488282C9.5507812 1.4506622 8.850119.75 8 .75zm0 1c.3096789 0 .5507812.2411023.5507812.5507812 0 .309679-.2411023.5488282-.5507812.5488282-.3096789 0-.5507812-.2391492-.5507812-.5488282C7.4492188 1.9911023 7.6903211 1.75 8 1.75zM2.484375 5.1796875C1.6764879 4.9184408.79565915 5.3678859.53320312 6.1757812.27057316 6.984212.71878451 7.8662346 1.5273438 8.1289062 2.33626 8.3912179 3.2197502 7.9413717 3.4824219 7.1328125 3.7448879 6.3248862 3.2946926 5.4427386 2.4863281 5.1796875zM2.1757812 6.1308594h.00195C2.472416 6.2264174 2.62662 6.5306495 2.53125 6.8242188 2.4359217 7.1176595 2.1310212 7.2734228 1.8359375 7.1777344 1.5424967 7.0824061 1.389005 6.7779442 1.484375 6.484375 1.5797033 6.1909342 1.882212 6.0354893 2.1757812 6.1308594zM4.0527344 12.171875c-.3928745.06246-.7618376.273509-1.0117188.617187-.4994837.687525-.3442559 1.665782.34375 2.166016.6878832.498679 1.6660545.34388 2.1660156-.34375.4986786-.687883.3438799-1.666054-.34375-2.166016-.3440606-.250159-.7614223-.3359-1.1542968-.273437zm.5664062 1.082031c.2503702.182039.3024152.519415.1210938.769532C4.5578823 14.272213 4.2221536 14.325404 3.9726562 14.144531 3.7242535 13.962443 3.6695398 13.624814 3.8496094 13.376953 4.031847 13.12631 4.369262 13.072225 4.6191406 13.253906zM11.947266 12.171875c-.392875-.06246-.810237.02328-1.154297.273437-.68763.499962-.8424288 1.478133-.34375 2.166016.499961.68763 1.478132.842429 2.166015.34375.688006-.500234.843234-1.478491.34375-2.166016-.249881-.343678-.618844-.554724-1.011718-.617187zm-.566407 1.082031c.249879-.181681.587294-.127596.769532.123047.180069.247861.125356.58549-.123047.767578-.249498.180873-.585226.127682-.767578-.121093-.181322-.250117-.129277-.587493.121093-.769532zM13.513672 5.1796875c-.808365.2630511-1.25856 1.1451987-.996094 1.953125.262672.8085592 1.146162 1.2584054 1.955078.9960937C15.281215 7.8662346 15.729427 6.984212 15.466797 6.1757812 15.204341 5.3678859 14.323512 4.9184408 13.515625 5.1796875zm.308594.9511719h.002c.293569-.09537.596078.060075.691406.3535156.09537.2935692-.05812.5980311-.351563.6933594-.295083.095688-.599984-.060075-.695312-.3535156-.09537-.2935693.05883-.5978014.353516-.6933594z" clip-rule="nonzero" color="#000" font-family="sans-serif" font-weight="400" overflow="visible" style="line-height:normal;font-variant-ligatures:normal;font-variant-position:normal;font-variant-caps:normal;font-variant-numeric:normal;font-variant-alternates:normal;font-feature-settings:normal;text-indent:0;text-align:start;text-decoration-line:none;text-decoration-style:solid;text-decoration-color:#000;text-transform:none;text-orientation:mixed;shape-padding:0;isolation:auto;mix-blend-mode:normal" class="color1c7287 svgShape"></path></svg>