<svg xmlns="http://www.w3.org/2000/svg" viewBox="0 0 32 32" id="BannedFile"><g data-name="Block file" fill="#1a1d24" class="color000000 svgShape"><path fill="#f4ce92" d="M20.2427,13.7578A5.9991,5.9991,0,1,0,22,18,5.9594,5.9594,0,0,0,20.2427,13.7578Zm-7.0713,1.4141a3.96,3.96,0,0,1,4.85-.6071l-5.457,5.4563a3.96,3.96,0,0,1,.6069-4.8492Zm5.6572,5.6562a4.1039,4.1039,0,0,1-4.8415.5985l5.4484-5.4477a3.96,3.96,0,0,1-.6069,4.8492Z" class="colord2c3fc svgShape"></path><path fill="#f7d194" d="M25.9222,8.6148a.9981.9981,0,0,0-.216-.3227L19.7077,2.2936A1.0062,1.0062,0,0,0,19,2H9A3.0033,3.0033,0,0,0,6,5V27a3.0033,3.0033,0,0,0,3,3H23a3.0033,3.0033,0,0,0,3-3V9A.9987.9987,0,0,0,25.9222,8.6148ZM20,5.4141,22.5859,8H20ZM23,28H9a1.0009,1.0009,0,0,1-1-1V5A1.0009,1.0009,0,0,1,9,4h9V9a1,1,0,0,0,1,1h5V27A1.0009,1.0009,0,0,1,23,28Z" class="colorb394f7 svgShape"></path></g></svg>