<svg xmlns="http://www.w3.org/2000/svg" data-name="Layer 1" viewBox="0 0 512 512" id="CompanyReview"><path fill="#ffc466" d="M411.5,7.5h-293a30,30,0,0,0-30,30v76a30,30,0,0,0,30,30H232.71a8,8,0,0,1,5.65,2.34l21,21a8,8,0,0,0,11.32,0l21-21a8,8,0,0,1,5.65-2.34H411.5a30,30,0,0,0,30-30v-76A30,30,0,0,0,411.5,7.5Z" class="color66c1ff svgShape"></path><path fill="#ffba4e" d="M411.5,7.5h-30a30,30,0,0,1,30,30v76a30,30,0,0,1-30,30h30a30,30,0,0,0,30-30v-76A30,30,0,0,0,411.5,7.5Z" class="color4eb7ff svgShape"></path><path fill="#f4ce92" d="M269.2 42.41l7.89 16A4.72 4.72 0 0 0 280.62 61l17.66 2.56a4.68 4.68 0 0 1 2.59 8L288.1 84a4.68 4.68 0 0 0-1.35 4.15l3 17.58a4.68 4.68 0 0 1-6.79 4.94l-15.79-8.31a4.73 4.73 0 0 0-4.36 0L247 110.65a4.68 4.68 0 0 1-6.79-4.94l3-17.58A4.68 4.68 0 0 0 241.9 84L229.13 71.53a4.68 4.68 0 0 1 2.59-8L249.38 61a4.72 4.72 0 0 0 3.53-2.57l7.89-16A4.68 4.68 0 0 1 269.2 42.41zM373.78 42.41l7.9 16A4.69 4.69 0 0 0 385.2 61l17.66 2.56a4.68 4.68 0 0 1 2.59 8L392.68 84a4.68 4.68 0 0 0-1.35 4.15l3 17.58a4.69 4.69 0 0 1-6.8 4.94l-15.79-8.31a4.73 4.73 0 0 0-4.36 0l-15.79 8.31a4.68 4.68 0 0 1-6.79-4.94l3-17.58A4.7 4.7 0 0 0 346.49 84L333.71 71.53a4.68 4.68 0 0 1 2.59-8L354 61a4.71 4.71 0 0 0 3.53-2.57l7.89-16A4.68 4.68 0 0 1 373.78 42.41z" class="colorffe966 svgShape"></path><path fill="#ffa81f" d="M346.63 110.06a4 4 0 0 0-.47-.21 4.72 4.72 0 0 0 2.47 1.26zM405.45 71.53a4.68 4.68 0 0 0-2.59-8L385.2 61a4.69 4.69 0 0 1-3.52-2.57l-7.9-16a4.68 4.68 0 0 0-8.4 0l-7.89 16A4.69 4.69 0 0 1 354 61h0a15.65 15.65 0 0 0 11.77 8.55h0a10.65 10.65 0 0 1 5.9 18.16h0a15.65 15.65 0 0 0-4.5 13.84l.15.87.08 0a4.73 4.73 0 0 1 4.36 0l15.79 8.31a4.69 4.69 0 0 0 6.8-4.94l-3-17.58A4.68 4.68 0 0 1 392.68 84zM300.87 71.53a4.68 4.68 0 0 0-2.59-8L280.62 61a4.72 4.72 0 0 1-3.53-2.57l-7.89-16a4.68 4.68 0 0 0-8.4 0l-7.89 16A4.69 4.69 0 0 1 249.42 61h0a15.63 15.63 0 0 0 11.77 8.55h0a10.65 10.65 0 0 1 5.9 18.16h0a15.62 15.62 0 0 0-4.5 13.84l.15.87.08 0a4.73 4.73 0 0 1 4.36 0L283 110.65a4.68 4.68 0 0 0 6.79-4.94l-3-17.58A4.68 4.68 0 0 1 288.1 84z" class="colorffdf1f svgShape"></path><path fill="#ffb136" d="M338.88,63.35A4.53,4.53,0,0,0,340.1,63l-3.8.55a5,5,0,0,0-1.25.36Z" class="colorffe236 svgShape"></path><path fill="#f4ce92" d="M164.62,42.41l7.89,16A4.71,4.71,0,0,0,176,61l17.66,2.56a4.68,4.68,0,0,1,2.59,8L183.51,84a4.7,4.7,0,0,0-1.34,4.15l3,17.58a4.68,4.68,0,0,1-6.79,4.94l-15.79-8.31a4.73,4.73,0,0,0-4.36,0l-15.79,8.31a4.69,4.69,0,0,1-6.8-4.94l3-17.58A4.68,4.68,0,0,0,137.32,84L124.55,71.53a4.68,4.68,0,0,1,2.59-8L144.8,61a4.69,4.69,0,0,0,3.52-2.57l7.9-16A4.68,4.68,0,0,1,164.62,42.41Z" class="colorffe966 svgShape"></path><path fill="#ffa81f" d="M196.29,71.53a4.68,4.68,0,0,0-2.59-8L176,61a4.71,4.71,0,0,1-3.53-2.57l-7.89-16a4.68,4.68,0,0,0-8.4,0l-7.9,16A4.68,4.68,0,0,1,144.83,61h0a15.66,15.66,0,0,0,11.78,8.55h0a10.65,10.65,0,0,1,5.9,18.16h0a15.62,15.62,0,0,0-4.5,13.84l.15.87.08,0a4.73,4.73,0,0,1,4.36,0l15.79,8.31a4.68,4.68,0,0,0,6.79-4.94l-3-17.58A4.7,4.7,0,0,1,183.51,84Z" class="colorffdf1f svgShape"></path><path fill="#eeeeee" d="M172.5,218.5h167a15,15,0,0,1,15,15v271a0,0,0,0,1,0,0h-197a0,0,0,0,1,0,0v-271A15,15,0,0,1,172.5,218.5Z" class="coloreeeeee svgShape"></path><path fill="#677187" d="M233,411.54H279a7,7,0,0,1,7,7v86a0,0,0,0,1,0,0H226a0,0,0,0,1,0,0v-86A7,7,0,0,1,233,411.54Z" class="color676e87 svgShape"></path><rect width="53.88" height="37" x="187.5" y="345.5" fill="#ffe2b3" rx="5" class="colorb3e0ff svgShape"></rect><rect width="53.88" height="37" x="270.62" y="345.5" fill="#ffe2b3" rx="5" class="colorb3e0ff svgShape"></rect><rect width="53.88" height="37" x="187.5" y="278.5" fill="#ffe2b3" rx="5" class="colorb3e0ff svgShape"></rect><rect width="53.88" height="37" x="270.62" y="278.5" fill="#ffe2b3" rx="5" class="colorb3e0ff svgShape"></rect><path fill="#cecece" d="M196.5 189.06H315.56a9 9 0 0 1 9 9V218.5a0 0 0 0 1 0 0H187.5a0 0 0 0 1 0 0V198.06A9 9 0 0 1 196.5 189.06zM354.5 263.5v-21a9 9 0 0 1 9-9h72a9 9 0 0 1 9 9v21" class="colorcecece svgShape"></path><path fill="#f7f7f7" d="M354.5,263.5h98.88a15,15,0,0,1,15,15v226a0,0,0,0,1,0,0H354.5a0,0,0,0,1,0,0v-241A0,0,0,0,1,354.5,263.5Z" class="colorf7f7f7 svgShape"></path><rect width="53.88" height="37" x="384.5" y="293.5" fill="#ffe2b3" rx="5" class="colorb3e0ff svgShape"></rect><rect width="53.88" height="37" x="384.5" y="360.5" fill="#ffe2b3" rx="5" class="colorb3e0ff svgShape"></rect><path fill="#cecece" d="M67.5,233.5h90a0,0,0,0,1,0,0v21a9,9,0,0,1-9,9h-72a9,9,0,0,1-9-9v-21A0,0,0,0,1,67.5,233.5Z" transform="rotate(180 112.5 248.5)" class="colorcecece svgShape"></path><path fill="#f7f7f7" d="M43.62,263.5H157.5a0,0,0,0,1,0,0v226a15,15,0,0,1-15,15H43.62a0,0,0,0,1,0,0v-241A0,0,0,0,1,43.62,263.5Z" transform="rotate(180 100.56 384)" class="colorf7f7f7 svgShape"></path><rect width="53.88" height="37" x="73.62" y="293.5" fill="#ffe2b3" rx="5" transform="rotate(180 100.56 312)" class="colorb3e0ff svgShape"></rect><rect width="53.88" height="37" x="73.62" y="360.5" fill="#ffe2b3" rx="5" transform="rotate(180 100.56 379)" class="colorb3e0ff svgShape"></rect><path fill="#677187" d="M396,426.54h30.94a7,7,0,0,1,7,7v71a0,0,0,0,1,0,0H389a0,0,0,0,1,0,0v-71A7,7,0,0,1,396,426.54Z" class="color676e87 svgShape"></path><path fill="#596174" d="M426.91 426.54h-15a7 7 0 0 1 7 7v71h15v-71A7 7 0 0 0 426.91 426.54zM279 411.54H264a7 7 0 0 1 7 7v86h15v-86A7 7 0 0 0 279 411.54z" class="color595f74 svgShape"></path><path fill="#677187" d="M85.09,426.54H116a7,7,0,0,1,7,7v71a0,0,0,0,1,0,0H78.09a0,0,0,0,1,0,0v-71A7,7,0,0,1,85.09,426.54Z" class="color676e87 svgShape"></path><polygon fill="#fff0d9" points="95.12 330.5 101.3 330.5 122.66 293.5 116.48 293.5 95.12 330.5" class="colord9f0ff svgShape"></polygon><polygon fill="#fff0d9" points="91.74 330.5 78.47 330.5 99.83 293.5 113.1 293.5 91.74 330.5" class="colord9f0ff svgShape"></polygon><polygon fill="#fff0d9" points="95.12 397.5 101.3 397.5 122.66 360.5 116.48 360.5 95.12 397.5" class="colord9f0ff svgShape"></polygon><polygon fill="#fff0d9" points="91.74 397.5 78.47 397.5 99.83 360.5 113.1 360.5 91.74 397.5" class="colord9f0ff svgShape"></polygon><polygon fill="#fff0d9" points="406.46 330.5 412.64 330.5 434 293.5 427.83 293.5 406.46 330.5" class="colord9f0ff svgShape"></polygon><polygon fill="#fff0d9" points="403.08 330.5 389.81 330.5 411.18 293.5 424.45 293.5 403.08 330.5" class="colord9f0ff svgShape"></polygon><polygon fill="#fff0d9" points="292.12 315.5 298.3 315.5 319.66 278.5 313.48 278.5 292.12 315.5" class="colord9f0ff svgShape"></polygon><polygon fill="#fff0d9" points="288.74 315.5 275.46 315.5 296.83 278.5 310.1 278.5 288.74 315.5" class="colord9f0ff svgShape"></polygon><polygon fill="#fff0d9" points="209 315.5 215.17 315.5 236.53 278.5 230.36 278.5 209 315.5" class="colord9f0ff svgShape"></polygon><polygon fill="#fff0d9" points="205.61 315.5 192.34 315.5 213.71 278.5 226.98 278.5 205.61 315.5" class="colord9f0ff svgShape"></polygon><polygon fill="#fff0d9" points="292.12 382.5 298.3 382.5 319.66 345.5 313.48 345.5 292.12 382.5" class="colord9f0ff svgShape"></polygon><polygon fill="#fff0d9" points="288.74 382.5 275.46 382.5 296.83 345.5 310.1 345.5 288.74 382.5" class="colord9f0ff svgShape"></polygon><polygon fill="#fff0d9" points="209 382.5 215.17 382.5 236.53 345.5 230.36 345.5 209 382.5" class="colord9f0ff svgShape"></polygon><polygon fill="#fff0d9" points="205.61 382.5 192.34 382.5 213.71 345.5 226.98 345.5 205.61 382.5" class="colord9f0ff svgShape"></polygon><polygon fill="#fff0d9" points="406.46 397.5 412.64 397.5 434 360.5 427.83 360.5 406.46 397.5" class="colord9f0ff svgShape"></polygon><polygon fill="#fff0d9" points="403.08 397.5 389.81 397.5 411.18 360.5 424.45 360.5 403.08 397.5" class="colord9f0ff svgShape"></polygon><path fill="#596174" d="M116,426.54H101a7,7,0,0,1,7,7v71h15v-71A7,7,0,0,0,116,426.54Z" class="color595f74 svgShape"></path><path fill="#1a1d24" d="M235.61,88.32l-2.77,16.12a12.19,12.19,0,0,0,17.68,12.85L265,109.67l14.48,7.62a12.27,12.27,0,0,0,5.68,1.41,12.21,12.21,0,0,0,12-14.26l-2.77-16.12L306.11,76.9a12.18,12.18,0,0,0-6.75-20.78l-16.2-2.35L275.92,39.1a12.18,12.18,0,0,0-21.84,0l-7.24,14.67-16.2,2.35a12.18,12.18,0,0,0-6.75,20.78ZM250.46,68.4a12.17,12.17,0,0,0,9.17-6.67L265,50.85l5.37,10.88a12.17,12.17,0,0,0,9.17,6.67l12,1.74-8.69,8.47a12.17,12.17,0,0,0-3.5,10.78l2.05,12-10.74-5.64a12.16,12.16,0,0,0-11.34,0l-10.74,5.64,2-12a12.17,12.17,0,0,0-3.5-10.78l-8.69-8.47ZM131,88.32l-2.77,16.12a12.19,12.19,0,0,0,17.68,12.85l14.48-7.62,14.48,7.62a12.12,12.12,0,0,0,12.83-.93,12.11,12.11,0,0,0,4.85-11.92l-2.77-16.12L201.52,76.9a12.18,12.18,0,0,0-6.75-20.78l-16.19-2.35L171.34,39.1a12.09,12.09,0,0,0-10.92-6.79h0a12.12,12.12,0,0,0-10.93,6.79l-7.24,14.67-16.19,2.35a12.18,12.18,0,0,0-6.75,20.78ZM145.88,68.4a12.19,12.19,0,0,0,9.17-6.67l5.37-10.88,5.37,10.88A12.17,12.17,0,0,0,175,68.4l12,1.74-8.69,8.47a12.17,12.17,0,0,0-3.5,10.78l2.05,12-10.74-5.64a12.18,12.18,0,0,0-11.34,0L144,101.35l2.05-12a12.17,12.17,0,0,0-3.5-10.78l-8.69-8.47ZM275.62,323H319.5A12.52,12.52,0,0,0,332,310.5v-27A12.52,12.52,0,0,0,319.5,271H275.62a12.52,12.52,0,0,0-12.5,12.5v27A12.52,12.52,0,0,0,275.62,323Zm2.5-37H317v22H278.12ZM192.5,323h43.88a12.52,12.52,0,0,0,12.5-12.5v-27a12.52,12.52,0,0,0-12.5-12.5H192.5A12.52,12.52,0,0,0,180,283.5v27A12.52,12.52,0,0,0,192.5,323Zm2.5-37h38.88v22H195Zm238.38,0H389.5A12.52,12.52,0,0,0,377,298.5v27A12.52,12.52,0,0,0,389.5,338h43.88a12.52,12.52,0,0,0,12.5-12.5v-27A12.52,12.52,0,0,0,433.38,286Zm-2.5,37H392V301h38.88ZM340.19,88.32l-2.77,16.12a12.19,12.19,0,0,0,17.68,12.85l14.48-7.62,14.48,7.62a12.27,12.27,0,0,0,5.68,1.41,12.21,12.21,0,0,0,12-14.26L399,88.32,410.69,76.9a12.18,12.18,0,0,0-6.75-20.78l-16.19-2.35L380.51,39.1h0a12.18,12.18,0,0,0-21.85,0l-7.24,14.67-16.19,2.35a12.18,12.18,0,0,0-6.76,20.78ZM355,68.4a12.17,12.17,0,0,0,9.17-6.67l5.37-10.88L375,61.73a12.19,12.19,0,0,0,9.17,6.67l12,1.74-8.69,8.47a12.17,12.17,0,0,0-3.5,10.78l2.05,12-10.74-5.64a12.16,12.16,0,0,0-11.34,0l-10.74,5.64,2.05-11.95a12.18,12.18,0,0,0-3.5-10.79L343,70.14ZM453.38,256H452V242.5A16.52,16.52,0,0,0,435.5,226h-72a17.39,17.39,0,0,0-2.71.24A22.53,22.53,0,0,0,339.5,211h-7.44V198.06a16.52,16.52,0,0,0-16.5-16.5H196.5a16.52,16.52,0,0,0-16.5,16.5V211h-7.5a22.53,22.53,0,0,0-21.29,15.24,17.39,17.39,0,0,0-2.71-.24h-72A16.52,16.52,0,0,0,60,242.5V256H58.62a22.52,22.52,0,0,0-22.5,22.5v226a7.5,7.5,0,0,0,7.5,7.5H468.38a7.5,7.5,0,0,0,7.5-7.5v-226A22.52,22.52,0,0,0,453.38,256ZM115.53,497H85.59V434h29.94ZM150,497H130.53V433.54A14.51,14.51,0,0,0,116,419H85.09a14.52,14.52,0,0,0-14.5,14.5V497H51.12V278.5a7.51,7.51,0,0,1,7.5-7.5H150Zm0-241H75V242.5a1.5,1.5,0,0,1,1.5-1.5h72a1.5,1.5,0,0,1,1.5,1.5Zm45-57.94a1.5,1.5,0,0,1,1.5-1.5H315.56a1.5,1.5,0,0,1,1.5,1.5V211H195ZM278.47,497H233.53V419h44.94ZM347,497H293.47V418.54A14.52,14.52,0,0,0,279,404H233a14.52,14.52,0,0,0-14.5,14.5V497H165V256H347Zm0-256H165v-7.5a7.5,7.5,0,0,1,7.5-7.5h167a7.5,7.5,0,0,1,7.5,7.5Zm15,1.5a1.5,1.5,0,0,1,1.5-1.5h72a1.5,1.5,0,0,1,1.5,1.5V256H362ZM426.41,497H396.47V434h29.94Zm34.47,0H441.41V433.54a14.52,14.52,0,0,0-14.5-14.5H396a14.51,14.51,0,0,0-14.5,14.5V497H362V271h91.38a7.51,7.51,0,0,1,7.5,7.5ZM78.62,405H122.5A12.52,12.52,0,0,0,135,392.5v-27A12.52,12.52,0,0,0,122.5,353H78.62a12.52,12.52,0,0,0-12.5,12.5v27A12.52,12.52,0,0,0,78.62,405Zm2.5-37H120v22H81.12ZM118.5,151H232.71a.47.47,0,0,1,.35.15l21,21a15.5,15.5,0,0,0,21.92,0l21-21a.47.47,0,0,1,.35-.15H411.5A37.54,37.54,0,0,0,449,113.5v-76A37.54,37.54,0,0,0,411.5,0h-293A37.54,37.54,0,0,0,81,37.5v76A37.54,37.54,0,0,0,118.5,151ZM96,37.5A22.52,22.52,0,0,1,118.5,15h293A22.52,22.52,0,0,1,434,37.5v76A22.52,22.52,0,0,1,411.5,136H297.29a15.39,15.39,0,0,0-11,4.54l-21,21a.48.48,0,0,1-.7,0l-21-21a15.39,15.39,0,0,0-11-4.54H118.5A22.52,22.52,0,0,1,96,113.5ZM192.5,390h43.88a12.52,12.52,0,0,0,12.5-12.5v-27a12.52,12.52,0,0,0-12.5-12.5H192.5A12.52,12.52,0,0,0,180,350.5v27A12.52,12.52,0,0,0,192.5,390Zm2.5-37h38.88v22H195ZM78.62,338H122.5A12.52,12.52,0,0,0,135,325.5v-27A12.52,12.52,0,0,0,122.5,286H78.62a12.52,12.52,0,0,0-12.5,12.5v27A12.52,12.52,0,0,0,78.62,338Zm2.5-37H120v22H81.12Zm194.5,89H319.5A12.52,12.52,0,0,0,332,377.5v-27A12.52,12.52,0,0,0,319.5,338H275.62a12.52,12.52,0,0,0-12.5,12.5v27A12.52,12.52,0,0,0,275.62,390Zm2.5-37H317v22H278.12Zm155.26,0H389.5A12.52,12.52,0,0,0,377,365.5v27A12.52,12.52,0,0,0,389.5,405h43.88a12.52,12.52,0,0,0,12.5-12.5v-27A12.52,12.52,0,0,0,433.38,353Zm-2.5,37H392V368h38.88Z" class="color272a33 svgShape"></path></svg>