<svg xmlns="http://www.w3.org/2000/svg" viewBox="0 0 64 64" id="DataSync"><g fill="#1a1d24" data-name="Data Sync" class="color222222 svgShape"><path d="M34.021 41a1.5 1.5 0 0 1-1.5-1.5 9.757 9.757 0 0 1 17.121-6.4 1.5 1.5 0 1 1-2.264 1.968A6.757 6.757 0 0 0 35.521 39.5a1.5 1.5 0 0 1-1.5 1.5Z" fill="#f4ce92" class="color000000 svgShape"></path><path d="M34.021 41a1.5 1.5 0 0 1-1.263-.69l-2.04-3.183a1.5 1.5 0 0 1 1.605-2.27l5.284 1.243a1.5 1.5 0 0 1 .427 2.747L34.79 40.79a1.482 1.482 0 0 1-.769.21zm8.256 8.26a9.693 9.693 0 0 1-7.748-3.827 1.5 1.5 0 0 1 2.381-1.825 6.757 6.757 0 0 0 12.124-4.1 1.5 1.5 0 0 1 3 0 9.768 9.768 0 0 1-9.757 9.752z" fill="#f4ce92" class="color000000 svgShape"></path><path d="M52.574 44.186a1.487 1.487 0 0 1-.343-.04L46.947 42.9a1.5 1.5 0 0 1-.426-2.747l3.244-1.94a1.5 1.5 0 0 1 2.032.477l2.04 3.183a1.5 1.5 0 0 1-1.263 2.31Z" fill="#f4ce92" class="color000000 svgShape"></path><path d="M42.233 57.161A17.658 17.658 0 1 1 59.891 39.5a17.679 17.679 0 0 1-17.658 17.661zm0-32.316A14.658 14.658 0 1 0 56.891 39.5a14.674 14.674 0 0 0-14.658-14.655zm-5.721-4.32H5.609a1.5 1.5 0 0 1-1.5-1.5v-8.3A3.891 3.891 0 0 1 8 6.839h26.126a3.89 3.89 0 0 1 3.886 3.886v8.3a1.5 1.5 0 0 1-1.5 1.5zm-29.4-3h27.9v-6.8a.887.887 0 0 0-.886-.886H8a.887.887 0 0 0-.886.886z" fill="#f4ce92" class="color000000 svgShape"></path><path d="M10.859 15.18a1.474 1.474 0 0 1-1.059-.44 1.5 1.5 0 0 1-.441-1.06 1.515 1.515 0 0 1 .441-1.06 1.356 1.356 0 0 1 .23-.181 1.325 1.325 0 0 1 .26-.139 1.263 1.263 0 0 1 .279-.09 1.47 1.47 0 0 1 .591 0 1.415 1.415 0 0 1 .279.09 1.74 1.74 0 0 1 .261.139 1.29 1.29 0 0 1 .22.181 1.513 1.513 0 0 1 .439 1.06 1.5 1.5 0 0 1-1.5 1.5zM29.4 31.2H5.61a1.5 1.5 0 0 1-1.5-1.5V19.02a1.5 1.5 0 0 1 1.5-1.5h30.9a1.5 1.5 0 0 1 1.5 1.5v5.38a1.5 1.5 0 0 1-3 0v-3.88H7.11v7.68H29.4a1.5 1.5 0 0 1 0 3z" fill="#f4ce92" class="color000000 svgShape"></path><path d="M10.859 25.859a1.582 1.582 0 0 1-.569-.109 1.6 1.6 0 0 1-.49-.33 1.461 1.461 0 0 1-.321-.49 1.389 1.389 0 0 1-.12-.571A1.5 1.5 0 0 1 9.8 23.3a1.537 1.537 0 0 1 2.12 0 1.515 1.515 0 0 1 .439 1.059 1.458 1.458 0 0 1-.439 1.061 1.574 1.574 0 0 1-.481.33 1.628 1.628 0 0 1-.58.109zM26.1 41.88H7.99a3.89 3.89 0 0 1-3.88-3.89V29.7a1.509 1.509 0 0 1 1.5-1.51h23.8a1.5 1.5 0 0 1 0 3H7.11v6.8a.887.887 0 0 0 .88.89H26.1a1.5 1.5 0 0 1 0 3z" fill="#f4ce92" class="color000000 svgShape"></path><path d="M10.859 36.54a1.387 1.387 0 0 1-.569-.12 1.415 1.415 0 0 1-.49-.32 1.445 1.445 0 0 1-.321-.491 1.38 1.38 0 0 1-.12-.569 1.52 1.52 0 0 1 .031-.3 1.489 1.489 0 0 1 .089-.28 1.748 1.748 0 0 1 .141-.26 1.237 1.237 0 0 1 .18-.221 1.544 1.544 0 0 1 1.639-.33c.091.04.17.091.261.141a1.344 1.344 0 0 1 .22.189 1.5 1.5 0 0 1 .439 1.061 1.475 1.475 0 0 1-.439 1.06 1.389 1.389 0 0 1-.481.32 1.428 1.428 0 0 1-.58.12Z" fill="#f4ce92" class="color000000 svgShape"></path></g></svg>