<svg xmlns="http://www.w3.org/2000/svg" enable-background="new 0 0 64 64" viewBox="0 0 64 64" id="Cart"><rect width="20" height="20" x="40" y="12" fill="#e7a741" class="colore7b541 svgShape"></rect><path fill="#f4ce92" d="M43,24c0,2.761,2.239,5,5,5h12V12H43V24z" class="colorf9cb6e svgShape"></path><polyline fill="#122b66" points="47 12 47 23 50 21 53 23 53 12" class="color662a12 svgShape"></polyline><rect width="18" height="2" x="11" y="20" fill="#f7d092" class="color92e0f7 svgShape"></rect><path fill="#f7d092" d="M30.414 47l-3.707-3.707C26.52 43.105 26.265 43 26 43l-11-.001v2L25.586 45l3.707 3.707C29.48 48.895 29.735 49 30 49h9v-2H30.414zM31 28v-2H15c-.265 0-.52.105-.707.293L11.586 29 6 29v2l6 0c.265 0 .52-.105.707-.293L15.414 28H31zM26 39h9v-2h-8v-2c0-.553-.448-1-1-1h-6v2h5v2C25 38.553 25.448 39 26 39z" class="color92e0f7 svgShape"></path><circle cx="41" cy="48" r="4" fill="#5a5b5d" class="color5a5b5d svgShape"></circle><polygon fill="#5a5b5d" points="22 13 29 13 36 36 62 36 62 40 33 40 26 17 22 17" class="color5a5b5d svgShape"></polygon><polygon fill="#777777" points="34 38 62 38 62 36 36 36 29 13 22 13 22 15 27 15" class="color777777 svgShape"></polygon><path fill="#777777" d="M41,44c-0.849,0-1.633,0.268-2.281,0.719C38.268,45.367,38,46.151,38,47c0,2.209,1.791,4,4,4
		c0.849,0,1.633-0.268,2.281-0.72C44.732,49.633,45,48.849,45,48C45,45.791,43.209,44,41,44z" class="color777777 svgShape"></path><circle cx="58" cy="48" r="4" fill="#5a5b5d" class="color5a5b5d svgShape"></circle><path fill="#777777" d="M58,44c-0.849,0-1.633,0.268-2.281,0.719C55.268,45.367,55,46.151,55,47c0,2.209,1.791,4,4,4
		c0.849,0,1.633-0.268,2.281-0.72C61.732,49.633,62,48.849,62,48C62,45.791,60.209,44,58,44z" class="color777777 svgShape"></path><circle cx="10" cy="21" r="3" fill="#cd9741" class="color4197cd svgShape"></circle><path fill="#e3aa50" d="M10,18c-0.571,0-1.1,0.168-1.554,0.446C8.168,18.9,8,19.429,8,20c0,1.657,1.343,3,3,3
			c0.571,0,1.1-0.168,1.554-0.446C12.832,22.1,13,21.571,13,21C13,19.343,11.657,18,10,18z" class="color50bae3 svgShape"></path><g fill="#1a1d24" class="color000000 svgShape"><circle cx="5" cy="30" r="3" fill="#cd9741" class="color4197cd svgShape"></circle><path fill="#e3aa50" d="M5,27c-0.571,0-1.1,0.168-1.554,0.446C3.168,27.9,3,28.429,3,29c0,1.657,1.343,3,3,3
			c0.571,0,1.1-0.168,1.554-0.446C7.832,31.1,8,30.571,8,30C8,28.343,6.657,27,5,27z" class="color50bae3 svgShape"></path></g><g fill="#1a1d24" class="color000000 svgShape"><circle cx="19" cy="35" r="3" fill="#cd9741" class="color4197cd svgShape"></circle><path fill="#e3aa50" d="M19,32c-0.571,0-1.1,0.168-1.554,0.446C17.168,32.9,17,33.429,17,34c0,1.657,1.343,3,3,3
			c0.571,0,1.1-0.168,1.554-0.446C21.832,36.1,22,35.571,22,35C22,33.343,20.657,32,19,32z" class="color50bae3 svgShape"></path></g><g fill="#1a1d24" class="color000000 svgShape"><circle cx="14" cy="44" r="3" fill="#cd9741" class="color4197cd svgShape"></circle><path fill="#e3aa50" d="M14,41c-0.571,0-1.1,0.168-1.554,0.446C12.168,41.9,12,42.429,12,43c0,1.657,1.343,3,3,3
			c0.571,0,1.1-0.168,1.554-0.446C16.832,45.1,17,44.571,17,44C17,42.343,15.657,41,14,41z" class="color50bae3 svgShape"></path></g></svg>