<svg xmlns="http://www.w3.org/2000/svg" viewBox="0 0 48 48" id="Bill"><path fill="#f4ce92" d="M36 20v24l-4-3-4 3-4-3-4 3-4-3-4 3V4l4 3 4-3 4 3 4-3 4 3 4-3v14z" class="colorf7f7fb svgShape"></path><path fill="#1a1d24" d="M30 32.984c-1.654 0-3-1.346-3-3s1.346-3 3-3 3 1.346 3 3a1 1 0 1 1-2 0 1.001 1.001 0 0 0-2 0c0 .552.449 1 1 1a1 1 0 1 1 0 2z" class="color444a54 svgShape"></path><path fill="#1a1d24" d="M30 36.984c-1.654 0-3-1.346-3-3a1 1 0 1 1 2 0 1.001 1.001 0 1 0 1-1 1 1 0 1 1 0-2c1.654 0 3 1.346 3 3s-1.346 3-3 3z" class="color444a54 svgShape"></path><path fill="#1a1d24" d="M30.001 38.016a1 1 0 0 1-1-.999L29 35.985a1 1 0 1 1 1.999-.002L31 37.014a1 1 0 0 1-.999 1.002zM30.001 29a1 1 0 0 1-1-.999L29 26.985a1 1 0 1 1 1.999-.002L31 27.999A1 1 0 0 1 30.001 29z" class="color444a54 svgShape"></path><path fill="#1a1d24" d="M36 45a.997.997 0 0 1-.6-.2L32 42.25l-3.4 2.55a.996.996 0 0 1-1.2 0L24 42.25l-3.4 2.55a.996.996 0 0 1-1.2 0L16 42.25l-3.4 2.55A1.002 1.002 0 0 1 11 44V4a1.001 1.001 0 0 1 1.6-.8L16 5.75l3.4-2.55a.996.996 0 0 1 1.2 0L24 5.75l3.4-2.55a.996.996 0 0 1 1.2 0L32 5.75l3.4-2.55A1.001 1.001 0 0 1 37 4v40a1.001 1.001 0 0 1-1 1zm-12-5c.211 0 .422.066.6.2l3.4 2.55 3.4-2.55a.996.996 0 0 1 1.2 0L35 42V6l-2.4 1.8a.996.996 0 0 1-1.2 0L28 5.25 24.6 7.8a.996.996 0 0 1-1.2 0L20 5.25 16.6 7.8a.996.996 0 0 1-1.2 0L13 6v36l2.4-1.8a.996.996 0 0 1 1.2 0l3.4 2.55 3.4-2.55a.995.995 0 0 1 .6-.2z" class="color444a54 svgShape"></path><path fill="#1a1d24" d="M25 12h-8a1 1 0 1 1 0-2h8a1 1 0 1 1 0 2zM31 12h-2a1 1 0 1 1 0-2h2a1 1 0 1 1 0 2zM25 16h-8a1 1 0 1 1 0-2h8a1 1 0 1 1 0 2zM31 16h-2a1 1 0 1 1 0-2h2a1 1 0 1 1 0 2zM25 20h-8a1 1 0 1 1 0-2h8a1 1 0 1 1 0 2zM31 20h-2a1 1 0 1 1 0-2h2a1 1 0 1 1 0 2zM25 24h-8a1 1 0 1 1 0-2h8a1 1 0 1 1 0 2zM25 28h-8a1 1 0 1 1 0-2h8a1 1 0 1 1 0 2zM31 24h-2a1 1 0 1 1 0-2h2a1 1 0 1 1 0 2z" class="color444a54 svgShape"></path></svg>