<svg xmlns="http://www.w3.org/2000/svg" viewBox="0 0 48 48" id="bigtaxes"><g data-name="Big taxes" fill="#1a1d24" class="color000000 svgShape"><path fill="#f4ce92" d="M44 5v4h-8V5a4 4 0 0 1 8 0Z" class="colorc6c3d8 svgShape"></path><path fill="#e5e0d7" d="M40 1a4 4 0 0 0-4 4v42H3V5a4 4 0 0 1 4-4Z" class="colordad7e5 svgShape"></path><path fill="#f2efeb" d="M40 1a4 4 0 0 0-4 4v40A31 31 0 0 1 5 14c0-12.17-.12-11.59.35-12.64C6.2.84 2.22 1 40 1Z" class="coloredebf2 svgShape"></path><path fill="#e5e0d7" d="M44 5.19V7h-2a4 4 0 0 1-3.64-5.64A4 4 0 0 1 44 5.19Z" class="colordad7e5 svgShape"></path><path fill="#425072" d="M22 37H8a1 1 0 0 1 0-2h14a1 1 0 0 1 0 2zm0 5H8a1 1 0 0 1 0-2h14a1 1 0 0 1 0 2zm0-10H8a1 1 0 0 1 0-2h14a1 1 0 0 1 0 2zm-6-5H8a1 1 0 0 1 0-2h8a1 1 0 0 1 0 2z" class="color425b72 svgShape"></path><circle cx="36" cy="34" r="9" fill="#e6b86f" class="color6fabe6 svgShape"></circle><path fill="#f4c882" d="M45 34a9.09 9.09 0 0 1-1.33 4.69 9 9 0 0 1-12.34-12.38A9 9 0 0 1 45 34Z" class="color82bcf4 svgShape"></path><path fill="#f2bc66" d="M15 11H9a1 1 0 0 1 0-2h6a1 1 0 0 1 0 2Z" class="colorf26674 svgShape"></path><path fill="#f2bc66" d="M11 18v-8a1 1 0 0 1 2 0v8a1 1 0 0 1-2 0zm11.06.35L20 12.85l-2.06 5.5a1 1 0 0 1-1.88-.7l3-8a1 1 0 0 1 1.88 0l3 8a1 1 0 0 1-1.88.7z" class="colorf26674 svgShape"></path><path fill="#f2bc66" d="M22 17h-4a1 1 0 0 1 0-2h4a1 1 0 0 1 0 2zm8 2c-.86 0-.68-.13-4.89-8.55a1 1 0 0 1 1.78-.9l4 8A1 1 0 0 1 30 19z" class="colorf26674 svgShape"></path><path fill="#f2bc66" d="M26 19a1 1 0 0 1-.89-1.45l4-8a1 1 0 0 1 1.78.9C26.52 19.2 26.84 19 26 19Z" class="colorf26674 svgShape"></path><path fill="#f2efeb" d="M33 33a2 2 0 1 1 2-2 2 2 0 0 1-2 2zm0-2zm0 0zm0 0zm0 0zm0 0zm0 0zm0 0zm0 0zm6 8a2 2 0 1 1 2-2 2 2 0 0 1-2 2zm0-2zm0 0zm0 0zm0 0zm0 0zm0 0zm0 0zm0 0zm-6.2 2a1 1 0 0 1-.8-1.62l6.4-8a1 1 0 0 1 1.6 1.25C33.12 39.21 33.47 39 32.8 39z" class="coloredebf2 svgShape"></path></g></svg>